<svg xmlns="http://www.w3.org/2000/svg" viewBox="0 0 256 298">
  <path d="m192 112.384 64 37.942857V224.768l-64 36.48-64-36.48v-74.422857" fill="#00b46f"/>
  <path d="m128 0 64 37.942857V112.384l-64 36.48-64-36.48V37.961143" fill="#2294d9"/>
  <path d="m192 37.942857 64 37.942857V150.336l-64 36.48-64-36.48V75.885714" fill="#2294d9"/>
  <path d="m64 37.942857 64 37.942857V150.336l-64 36.48-64-36.48V75.885714" fill="#f85551"/>
  <path d="m64 112.384 64 37.942857V224.768l-64 36.48-64-36.48v-74.422857" fill="#f85551"/>
  <path d="M128 148.873143 192 186.816v74.441143l-64 36.48-64-36.48V186.816" fill="#00b46f"/>
  <path d="m192 37.942857-64 37.942857-64-37.942857L128 0zm64 37.942857-64 37.961143L128 75.904l64-37.942857L256 75.904z" fill="#30b2e9"/>
  <path d="M128 223.305143v-74.422857l-64 37.942857V261.248" fill="#00ab64"/>
  <path d="m192 186.816-64 36.48-64-36.48 64-37.942857" fill="#00ce8e"/>
  <path d="m128 223.305143-64-36.48 64-37.942857z" fill="#00c783"/>
  <path d="M128 75.885714 64 37.942857 128 0z" fill="#2caee7"/>
  <path d="m128 75.885714-64 37.961143L0 75.904l64-37.942857" fill="#fb716c"/>
  <path d="m256 150.336-64 36.48-64-37.942857L192 113.856" fill="#1f8ed6"/>
  <path d="M63.012571 260.626286 0 224.146286l63.012571-37.961143z" fill="#f64743"/>
  <path d="M64 113.846857V37.961143L128 75.904v72.96" fill="#f96560"/>
  <path d="M128 148.873143V75.885714l-64 37.961143v72.96" fill="#b71d1d"/>
  <path d="M128 148.873143 64 113.856l64-37.970286z" fill="#b21a1a"/>
  <path d="m256 224.768-64-37.942857 64-36.48z" fill="#10161a" fill-opacity=".2"/>
  <path d="M192 261.257143V186.816l-64 36.48v74.450286l64-36.48zm64-36.48V150.336l-64 36.48v74.441143z" fill="#007233"/>
  <path d="m256 224.768-64-37.942857 64-36.48z" fill="#00682c"/>
  <path d="M256 150.336V75.885714l-64 37.961143v72.96" fill="#0759ba"/>
  <path d="m256 150.336-64-36.48 64-37.970286z" fill="#0860bf"/>
  <path d="M0 75.885714 64 112.384l64-36.48-62.537143 38.674286L64 186.514286 62.537143 114.56z" fill="#febcb7" opacity=".78"/>
  <path d="M128 75.885714 192 112.384l64-36.48-62.537143 38.674286L192 186.806857l-1.462857-72.228571" fill="#4edcf8" opacity=".78"/>
  <path d="m64 186.816 64 35.035429L192 186.816l-62.537143 37.211429L128 297.691429l-1.462857-73.654858L64 186.825143z" fill="#00f3c9" opacity=".78"/>
</svg>